<svg width="160" height="160" viewBox="0 0 160 160" fill="none" xmlns="http://www.w3.org/2000/svg">
  <defs>
    <radialGradient id="bg" cx="0" cy="0" r="1" gradientUnits="userSpaceOnUse" gradientTransform="translate(86 80) rotate(135) scale(88)">
      <stop offset="0" stop-color="#143B9B"/>
      <stop offset="0.58" stop-color="#0A1E59"/>
      <stop offset="1" stop-color="#07122E"/>
    </radialGradient>
    <linearGradient id="ring" x1="26" y1="132" x2="132" y2="28" gradientUnits="userSpaceOnUse">
      <stop stop-color="#17C7FF"/>
      <stop offset="0.5" stop-color="#2D77FF"/>
      <stop offset="1" stop-color="#D8F5FF"/>
    </linearGradient>
    <linearGradient id="helmet" x1="68" y1="48" x2="108" y2="108" gradientUnits="userSpaceOnUse">
      <stop stop-color="#FFFFFF"/>
      <stop offset="0.45" stop-color="#7BC7FF"/>
      <stop offset="1" stop-color="#2356D6"/>
    </linearGradient>
    <filter id="glow" x="0" y="0" width="160" height="160" filterUnits="userSpaceOnUse" color-interpolation-filters="sRGB">
      <feGaussianBlur stdDeviation="4" result="blur"/>
      <feBlend in="SourceGraphic" in2="blur"/>
    </filter>
  </defs>
  <circle cx="80" cy="80" r="56" fill="url(#bg)" stroke="url(#ring)" stroke-width="4"/>
  <path d="M53 33C69 24 92 21 111 29L99 45C86 39 70 39 58 46L53 33Z" fill="url(#helmet)" opacity="0.95"/>
  <path d="M60 56C71 45 87 42 101 47C111 50 118 57 121 67L103 74C101 68 96 62 89 60C81 57 72 59 66 65L60 56Z" fill="url(#helmet)" opacity="0.9"/>
  <path d="M74 77L94 61L108 90L93 100L82 117L71 112L77 99L67 89L74 77Z" fill="url(#helmet)"/>
  <path d="M86 76C89 74 93 75 95 78C97 81 97 85 95 88C93 91 89 92 86 90L89 84L86 76Z" fill="#08236B" opacity="0.75"/>
  <path d="M82 99L95 100L88 108L78 108L82 99Z" fill="#DDF4FF" opacity="0.9"/>
  <path d="M48 113L63 95L82 103" stroke="#91EAFF" stroke-width="1.5" opacity="0.8"/>
  <path d="M45 75L61 66L77 76" stroke="#91EAFF" stroke-width="1.5" opacity="0.8"/>
  <path d="M106 108L121 95L113 72" stroke="#91EAFF" stroke-width="1.5" opacity="0.8"/>
  <circle cx="33" cy="79" r="5" fill="#CFFDFF" filter="url(#glow)"/>
  <circle cx="46" cy="55" r="4" fill="#CFFDFF" filter="url(#glow)"/>
  <circle cx="61" cy="102" r="4" fill="#CFFDFF" filter="url(#glow)"/>
  <circle cx="79" cy="118" r="4" fill="#CFFDFF" filter="url(#glow)"/>
  <circle cx="118" cy="102" r="5" fill="#CFFDFF" filter="url(#glow)"/>
  <circle cx="128" cy="74" r="4" fill="#CFFDFF" filter="url(#glow)"/>
  <circle cx="110" cy="44" r="4" fill="#CFFDFF" filter="url(#glow)"/>
</svg>
