<svg width="1440" height="900" viewBox="0 0 1440 900" fill="none" xmlns="http://www.w3.org/2000/svg">
  <defs>
    <linearGradient id="bg" x1="0" y1="0" x2="1440" y2="900" gradientUnits="userSpaceOnUse">
      <stop stop-color="#08161F"/>
      <stop offset="0.55" stop-color="#0F2530"/>
      <stop offset="1" stop-color="#15333D"/>
    </linearGradient>
    <linearGradient id="panelA" x1="0" y1="0" x2="320" y2="180" gradientUnits="userSpaceOnUse">
      <stop stop-color="#173D59"/>
      <stop offset="1" stop-color="#1B6F8A"/>
    </linearGradient>
    <linearGradient id="panelB" x1="0" y1="0" x2="320" y2="180" gradientUnits="userSpaceOnUse">
      <stop stop-color="#303F54"/>
      <stop offset="1" stop-color="#5271A3"/>
    </linearGradient>
    <linearGradient id="panelC" x1="0" y1="0" x2="320" y2="180" gradientUnits="userSpaceOnUse">
      <stop stop-color="#244C4A"/>
      <stop offset="1" stop-color="#2F8D85"/>
    </linearGradient>
  </defs>
  <rect width="1440" height="900" fill="url(#bg)"/>
  <rect x="28" y="28" width="1384" height="844" rx="32" fill="rgba(9,25,33,0.72)" stroke="rgba(160,216,235,0.12)"/>
  <rect x="60" y="60" width="190" height="14" rx="7" fill="#D8F6FF"/>
  <rect x="60" y="88" width="320" height="24" rx="12" fill="#F4FBFF"/>
  <rect x="1170" y="62" width="98" height="38" rx="19" fill="#103746"/>
  <rect x="1284" y="62" width="96" height="38" rx="19" fill="#E5F7FF"/>
  <rect x="60" y="148" width="420" height="180" rx="28" fill="url(#panelA)"/>
  <rect x="498" y="148" width="420" height="180" rx="28" fill="url(#panelB)"/>
  <rect x="936" y="148" width="444" height="180" rx="28" fill="url(#panelC)"/>
  <g fill="#F3FCFF">
    <rect x="92" y="182" width="160" height="10" rx="5" opacity="0.72"/>
    <rect x="92" y="208" width="118" height="38" rx="19"/>
    <rect x="530" y="182" width="168" height="10" rx="5" opacity="0.72"/>
    <rect x="530" y="208" width="118" height="38" rx="19"/>
    <rect x="968" y="182" width="154" height="10" rx="5" opacity="0.72"/>
    <rect x="968" y="208" width="118" height="38" rx="19"/>
  </g>
  <rect x="60" y="354" width="876" height="230" rx="28" fill="#0D202A" stroke="#173948"/>
  <rect x="960" y="354" width="420" height="230" rx="28" fill="#0D202A" stroke="#173948"/>
  <rect x="60" y="610" width="654" height="220" rx="28" fill="#0D202A" stroke="#173948"/>
  <rect x="736" y="610" width="644" height="220" rx="28" fill="#0D202A" stroke="#173948"/>
  <g fill="#D9F6FF">
    <rect x="96" y="388" width="220" height="12" rx="6"/>
    <rect x="96" y="410" width="312" height="10" rx="5" opacity="0.42"/>
    <rect x="996" y="388" width="186" height="12" rx="6"/>
    <rect x="996" y="410" width="248" height="10" rx="5" opacity="0.42"/>
    <rect x="96" y="644" width="174" height="12" rx="6"/>
    <rect x="96" y="666" width="220" height="10" rx="5" opacity="0.42"/>
    <rect x="772" y="644" width="200" height="12" rx="6"/>
    <rect x="772" y="666" width="250" height="10" rx="5" opacity="0.42"/>
  </g>
  <path d="M110 534C178 500 252 452 322 446C390 440 454 490 522 486C586 482 644 440 710 420C764 404 818 404 886 390" stroke="#29D0C4" stroke-width="7" stroke-linecap="round"/>
  <path d="M110 508C168 522 222 516 290 502C354 488 414 458 484 466C560 474 624 532 696 530C772 528 832 470 886 450" stroke="#7ED8FF" stroke-width="5" stroke-linecap="round"/>
  <g>
    <circle cx="110" cy="534" r="7" fill="#29D0C4"/>
    <circle cx="322" cy="446" r="7" fill="#29D0C4"/>
    <circle cx="522" cy="486" r="7" fill="#29D0C4"/>
    <circle cx="710" cy="420" r="7" fill="#29D0C4"/>
    <circle cx="886" cy="390" r="7" fill="#29D0C4"/>
  </g>
  <g>
    <rect x="996" y="454" width="348" height="20" rx="10" fill="#143544"/>
    <rect x="996" y="492" width="280" height="20" rx="10" fill="#1A4E60"/>
    <rect x="996" y="530" width="230" height="20" rx="10" fill="#2A7982"/>
  </g>
  <g>
    <rect x="96" y="710" width="580" height="18" rx="9" fill="#153544"/>
    <rect x="96" y="746" width="540" height="18" rx="9" fill="#12303D"/>
    <rect x="96" y="782" width="498" height="18" rx="9" fill="#102A35"/>
  </g>
  <g>
    <rect x="772" y="708" width="78" height="86" rx="18" fill="#1A4353"/>
    <rect x="870" y="676" width="78" height="118" rx="18" fill="#21617A"/>
    <rect x="968" y="636" width="78" height="158" rx="18" fill="#2A7E92"/>
    <rect x="1066" y="660" width="78" height="134" rx="18" fill="#1F596B"/>
    <rect x="1164" y="612" width="78" height="182" rx="18" fill="#41B7C2"/>
    <rect x="1262" y="690" width="78" height="104" rx="18" fill="#164252"/>
  </g>
</svg>