<svg width="1440" height="900" viewBox="0 0 1440 900" fill="none" xmlns="http://www.w3.org/2000/svg">
  <defs>
    <linearGradient id="bg" x1="0" y1="0" x2="1440" y2="900" gradientUnits="userSpaceOnUse">
      <stop stop-color="#F4F7F8"/>
      <stop offset="1" stop-color="#E5EEF1"/>
    </linearGradient>
    <linearGradient id="sidebar" x1="0" y1="0" x2="292" y2="900" gradientUnits="userSpaceOnUse">
      <stop stop-color="#173440"/>
      <stop offset="1" stop-color="#112832"/>
    </linearGradient>
    <linearGradient id="kpiA" x1="0" y1="0" x2="240" y2="160" gradientUnits="userSpaceOnUse">
      <stop stop-color="#173F4A"/>
      <stop offset="1" stop-color="#226977"/>
    </linearGradient>
    <linearGradient id="kpiB" x1="0" y1="0" x2="240" y2="160" gradientUnits="userSpaceOnUse">
      <stop stop-color="#20475D"/>
      <stop offset="1" stop-color="#3C7BA4"/>
    </linearGradient>
    <linearGradient id="kpiC" x1="0" y1="0" x2="240" y2="160" gradientUnits="userSpaceOnUse">
      <stop stop-color="#334B5A"/>
      <stop offset="1" stop-color="#51778C"/>
    </linearGradient>
    <linearGradient id="kpiD" x1="0" y1="0" x2="240" y2="160" gradientUnits="userSpaceOnUse">
      <stop stop-color="#4B5F34"/>
      <stop offset="1" stop-color="#80994F"/>
    </linearGradient>
  </defs>
  <rect width="1440" height="900" fill="url(#bg)"/>
  <rect width="292" height="900" fill="url(#sidebar)"/>
  <circle cx="74" cy="72" r="28" fill="#0F2732"/>
  <circle cx="74" cy="72" r="18" fill="#D4EDF2"/>
  <rect x="116" y="52" width="112" height="12" rx="6" fill="#F4FBFF"/>
  <rect x="116" y="72" width="88" height="10" rx="5" fill="#87A8B4"/>
  <g fill="#D6EDF3" opacity="0.92">
    <rect x="26" y="136" width="240" height="44" rx="14"/>
    <rect x="26" y="190" width="240" height="44" rx="14" opacity="0.2"/>
    <rect x="26" y="244" width="240" height="44" rx="14" opacity="0.2"/>
    <rect x="26" y="298" width="240" height="44" rx="14" opacity="0.2"/>
    <rect x="26" y="372" width="240" height="10" rx="5" opacity="0.25"/>
    <rect x="26" y="396" width="240" height="44" rx="14" opacity="0.2"/>
    <rect x="26" y="450" width="240" height="44" rx="14" opacity="0.2"/>
    <rect x="26" y="504" width="240" height="44" rx="14" opacity="0.2"/>
  </g>
  <rect x="292" y="0" width="1148" height="90" fill="#F4F7F8"/>
  <rect x="328" y="28" width="168" height="10" rx="5" fill="#7A8D98"/>
  <rect x="328" y="48" width="292" height="18" rx="9" fill="#203A45"/>
  <rect x="1288" y="24" width="44" height="44" rx="14" fill="#FFFFFF" stroke="#D9E2E7"/>
  <rect x="1344" y="24" width="64" height="44" rx="14" fill="#FFFFFF" stroke="#D9E2E7"/>
  <rect x="328" y="122" width="246" height="96" rx="22" fill="url(#kpiA)"/>
  <rect x="592" y="122" width="246" height="96" rx="22" fill="url(#kpiB)"/>
  <rect x="856" y="122" width="246" height="96" rx="22" fill="url(#kpiC)"/>
  <rect x="1120" y="122" width="246" height="96" rx="22" fill="url(#kpiD)"/>
  <g fill="#F7FCFF">
    <rect x="356" y="146" width="132" height="10" rx="5" opacity="0.75"/>
    <rect x="356" y="170" width="76" height="22" rx="11"/>
    <rect x="620" y="146" width="132" height="10" rx="5" opacity="0.75"/>
    <rect x="620" y="170" width="76" height="22" rx="11"/>
    <rect x="884" y="146" width="132" height="10" rx="5" opacity="0.75"/>
    <rect x="884" y="170" width="76" height="22" rx="11"/>
    <rect x="1148" y="146" width="132" height="10" rx="5" opacity="0.75"/>
    <rect x="1148" y="170" width="76" height="22" rx="11"/>
  </g>
  <rect x="328" y="248" width="710" height="284" rx="26" fill="#FFFFFF" stroke="#D9E2E7"/>
  <rect x="1062" y="248" width="304" height="284" rx="26" fill="#FFFFFF" stroke="#D9E2E7"/>
  <rect x="328" y="560" width="710" height="274" rx="26" fill="#FFFFFF" stroke="#D9E2E7"/>
  <rect x="1062" y="560" width="304" height="274" rx="26" fill="#FFFFFF" stroke="#D9E2E7"/>
  <g fill="#173440">
    <rect x="356" y="278" width="180" height="12" rx="6"/>
    <rect x="356" y="300" width="320" height="10" rx="5" opacity="0.38"/>
    <rect x="1090" y="278" width="144" height="12" rx="6"/>
    <rect x="1090" y="300" width="188" height="10" rx="5" opacity="0.38"/>
    <rect x="356" y="590" width="172" height="12" rx="6"/>
    <rect x="356" y="612" width="264" height="10" rx="5" opacity="0.38"/>
    <rect x="1090" y="590" width="144" height="12" rx="6"/>
    <rect x="1090" y="612" width="166" height="10" rx="5" opacity="0.38"/>
  </g>
  <g>
    <rect x="356" y="348" width="616" height="24" rx="12" fill="#E8F0F2"/>
    <rect x="356" y="392" width="428" height="24" rx="12" fill="#C1D5DD"/>
    <rect x="356" y="436" width="512" height="24" rx="12" fill="#8EB1C0"/>
    <rect x="356" y="480" width="560" height="24" rx="12" fill="#4F8295"/>
  </g>
  <g>
    <rect x="1090" y="350" width="248" height="52" rx="16" fill="#F4F7F8"/>
    <rect x="1090" y="416" width="248" height="52" rx="16" fill="#F4F7F8"/>
    <rect x="1090" y="482" width="248" height="52" rx="16" fill="#F4F7F8"/>
    <rect x="1110" y="368" width="126" height="10" rx="5" fill="#173440"/>
    <rect x="1110" y="387" width="176" height="8" rx="4" fill="#8AA0AA"/>
    <rect x="1110" y="434" width="118" height="10" rx="5" fill="#173440"/>
    <rect x="1110" y="453" width="170" height="8" rx="4" fill="#8AA0AA"/>
    <rect x="1110" y="500" width="134" height="10" rx="5" fill="#173440"/>
    <rect x="1110" y="519" width="168" height="8" rx="4" fill="#8AA0AA"/>
  </g>
  <g>
    <rect x="356" y="650" width="656" height="28" rx="14" fill="#E9EFF2"/>
    <rect x="356" y="696" width="656" height="28" rx="14" fill="#F3F7F8"/>
    <rect x="356" y="742" width="656" height="28" rx="14" fill="#F3F7F8"/>
    <rect x="376" y="658" width="148" height="12" rx="6" fill="#173440"/>
    <rect x="376" y="704" width="116" height="12" rx="6" fill="#345765"/>
    <rect x="376" y="750" width="126" height="12" rx="6" fill="#345765"/>
    <rect x="760" y="656" width="112" height="16" rx="8" fill="#DEF3E8"/>
    <rect x="760" y="702" width="82" height="16" rx="8" fill="#FFF1D8"/>
    <rect x="760" y="748" width="102" height="16" rx="8" fill="#E8F0F2"/>
  </g>
  <g>
    <path d="M1090 760C1125 716 1166 700 1216 680C1258 663 1292 637 1338 624" stroke="#123B49" stroke-width="12" stroke-linecap="round"/>
    <path d="M1090 736C1134 720 1174 708 1220 692C1260 678 1298 660 1338 640" stroke="#26A0A7" stroke-width="6" stroke-linecap="round"/>
    <circle cx="1090" cy="760" r="8" fill="#123B49"/>
    <circle cx="1170" cy="710" r="8" fill="#123B49"/>
    <circle cx="1250" cy="670" r="8" fill="#123B49"/>
    <circle cx="1338" cy="624" r="8" fill="#123B49"/>
  </g>
</svg>